<?xml-stylesheet type="text/css" href="../css/svgUseCases.css" ?>
<svg
xmlns="http://www.w3.org/2000/svg"
xmlns:xlink="http://www.w3.org/1999/xlink"
viewBox='0 0 52 61' class="flightIcon">
  <path fill-rule="evenodd"  stroke="rgb(18, 85, 89)" stroke-width="1.5px" stroke-linecap="butt" stroke-linejoin="miter" fill="rgb(18, 85, 89)"
  d="M25.754,58.031 C12.701,58.031 2.477,54.549 2.477,50.104 C2.477,48.656 3.487,47.317 5.480,46.124 C5.742,45.967 6.083,46.049 6.242,46.308 C6.401,46.568 6.318,46.906 6.055,47.063 C4.929,47.737 3.588,48.811 3.588,50.104 C3.588,53.402 12.495,56.933 25.754,56.933 C39.007,56.933 47.910,53.402 47.910,50.104 C47.910,48.732 46.415,47.602 45.160,46.897 C44.894,46.746 44.801,46.412 44.953,46.147 C45.104,45.884 45.444,45.793 45.710,45.942 C47.876,47.161 49.021,48.600 49.021,50.104 C49.021,54.549 38.801,58.031 25.754,58.031 ZM16.777,18.239 C16.777,12.976 20.771,8.695 25.679,8.695 C30.588,8.695 34.581,12.976 34.581,18.239 C34.581,23.497 30.588,27.776 25.679,27.776 C20.771,27.776 16.777,23.497 16.777,18.239 ZM33.471,18.239 C33.471,13.582 29.976,9.793 25.679,9.793 C21.383,9.793 17.888,13.582 17.888,18.239 C17.888,22.891 21.383,26.677 25.679,26.677 C29.976,26.677 33.471,22.891 33.471,18.239 ZM35.014,36.367 C34.838,36.614 34.491,36.674 34.240,36.499 C33.989,36.325 33.929,35.982 34.106,35.734 C36.909,31.798 38.791,27.831 39.699,23.943 C40.863,18.962 39.851,13.589 36.993,9.570 C34.606,6.213 31.184,4.117 27.358,3.668 C23.454,3.212 19.631,4.428 16.593,7.094 C13.160,10.107 11.188,14.565 11.184,19.325 C11.172,31.929 23.442,42.851 25.734,44.780 L27.564,43.106 C28.594,42.165 29.976,41.734 31.358,41.920 C37.033,42.692 40.421,44.443 40.421,46.606 C40.421,49.887 32.862,51.657 25.749,51.657 C18.636,51.657 11.077,49.887 11.077,46.606 C11.077,45.303 12.314,44.136 14.654,43.231 C14.939,43.122 15.261,43.260 15.373,43.543 C15.485,43.825 15.344,44.144 15.058,44.254 C13.234,44.959 12.188,45.817 12.188,46.606 C12.188,48.476 17.757,50.559 25.749,50.559 C33.741,50.559 39.310,48.476 39.310,46.606 C39.310,45.404 36.774,43.765 31.206,43.008 C30.157,42.866 29.104,43.195 28.318,43.913 L26.130,45.914 C25.928,46.097 25.621,46.108 25.407,45.940 C25.250,45.817 21.528,42.863 17.749,38.103 C14.244,33.688 10.066,26.845 10.073,19.324 C10.077,14.251 12.185,9.494 15.856,6.273 C19.133,3.396 23.264,2.085 27.489,2.577 C31.633,3.064 35.331,5.323 37.901,8.938 C40.939,13.209 42.015,18.911 40.781,24.191 C39.841,28.217 37.900,32.313 35.014,36.367 Z"/>
</svg>
