<svg
xmlns="http://www.w3.org/2000/svg"
xmlns:xlink="http://www.w3.org/1999/xlink"
viewBox='0 0 55 60'>
  <path fill-rule="evenodd"  stroke="rgb(18, 85, 89)" stroke-width="1.5px" stroke-linecap="butt" stroke-linejoin="miter" fill="rgb(18, 85, 89)"
  d="M50.729,55.745 C49.885,56.575 48.762,57.031 47.566,57.031 L6.941,57.031 C5.749,57.031 4.628,56.576 3.785,55.752 C2.942,54.926 2.479,53.829 2.480,52.663 L2.492,39.999 C2.495,37.202 4.470,34.840 7.188,34.380 C7.329,34.356 7.473,34.337 7.617,34.323 L19.779,33.094 C19.935,33.048 20.101,33.044 20.246,33.129 L27.360,37.307 L34.347,33.203 C34.469,33.072 34.644,32.990 34.839,33.007 L46.885,34.227 C47.026,34.241 47.166,34.260 47.305,34.284 C49.987,34.743 51.944,37.083 51.959,39.846 L52.027,52.645 C52.034,53.815 51.572,54.916 50.729,55.745 ZM20.789,34.794 L22.356,42.298 L26.426,38.104 L20.789,34.794 ZM28.317,38.091 L32.695,42.309 L33.985,34.763 L28.317,38.091 ZM50.778,39.852 C50.766,37.648 49.220,35.784 47.101,35.421 C46.990,35.402 46.877,35.386 46.764,35.375 L35.276,34.212 L33.673,43.594 C33.636,43.807 33.482,43.982 33.273,44.048 C33.213,44.067 33.152,44.076 33.090,44.076 C32.938,44.076 32.788,44.018 32.676,43.911 L27.375,38.803 L22.432,43.897 C22.319,44.014 22.164,44.076 22.004,44.076 C21.950,44.076 21.895,44.069 21.842,44.055 C21.630,43.995 21.470,43.826 21.426,43.615 L19.478,34.285 L7.738,35.471 C7.620,35.483 7.504,35.498 7.389,35.518 C5.272,35.876 3.675,37.802 3.673,40.000 L3.660,52.665 C3.660,53.522 4.000,54.329 4.620,54.935 C5.240,55.543 6.064,55.877 6.941,55.877 L47.566,55.877 C48.446,55.877 49.271,55.541 49.892,54.931 C50.512,54.321 50.852,53.511 50.847,52.651 L50.778,39.852 ZM36.233,21.161 C35.537,24.528 33.622,27.631 30.838,29.896 C30.824,29.907 30.810,29.919 30.796,29.927 C30.727,29.974 29.086,31.066 27.040,31.066 C24.970,31.066 23.520,29.951 23.459,29.904 C20.663,27.629 18.746,24.526 18.051,21.161 C17.846,20.168 17.763,19.492 17.759,19.463 L17.484,17.690 L17.044,13.053 C16.966,12.611 16.967,12.142 17.048,11.693 C17.056,11.650 17.067,11.598 17.077,11.550 C17.459,6.481 21.788,2.468 27.066,2.468 C32.595,2.468 37.093,6.868 37.093,12.275 C37.093,12.293 37.085,12.308 37.083,12.326 C37.104,14.790 36.371,20.491 36.233,21.161 ZM18.217,12.923 L18.655,17.550 L18.929,19.308 C18.932,19.332 19.014,19.988 19.209,20.933 C19.850,24.041 21.625,26.909 24.205,29.009 C24.206,29.010 25.397,29.911 27.040,29.911 C28.616,29.911 29.934,29.101 30.106,28.990 C32.671,26.894 34.435,24.033 35.076,20.933 C35.285,19.915 35.863,14.792 35.916,12.618 C35.271,13.037 34.584,13.374 33.863,13.626 C31.180,14.567 26.963,14.631 24.045,12.551 L23.900,12.446 C23.339,12.036 21.848,10.948 20.572,10.692 C20.414,10.660 20.212,10.631 19.981,10.631 C19.776,10.631 19.549,10.654 19.310,10.714 C19.016,10.791 18.712,10.871 18.509,11.108 C18.351,11.291 18.293,11.512 18.247,11.734 C18.236,11.914 18.219,12.092 18.219,12.275 C18.219,12.356 18.202,12.432 18.172,12.501 C18.178,12.645 18.192,12.776 18.210,12.875 C18.213,12.891 18.215,12.907 18.217,12.923 ZM27.066,3.622 C23.099,3.622 19.734,6.190 18.615,9.715 C18.749,9.670 18.876,9.632 18.979,9.605 C19.743,9.410 20.394,9.475 20.813,9.561 C22.343,9.869 23.929,11.026 24.606,11.521 L24.742,11.620 C27.312,13.451 31.065,13.380 33.465,12.539 C34.321,12.241 35.113,11.788 35.841,11.223 C35.307,6.948 31.579,3.622 27.066,3.622 Z"/>
</svg>
