<svg
xmlns="http://www.w3.org/2000/svg"
xmlns:xlink="http://www.w3.org/1999/xlink"
viewBox='0 0 27 44'>
  <path fill-rule="evenodd"  fill="rgb(18, 85, 89)"
  d="M25.369,17.922 L22.551,17.922 C21.732,17.922 21.068,17.252 21.068,16.425 C21.068,15.599 21.732,14.929 22.551,14.929 L23.831,14.929 C23.624,12.917 22.862,11.330 21.557,10.198 C20.166,8.991 18.404,8.200 16.323,7.849 C15.609,7.727 15.085,7.103 15.085,6.372 L15.085,4.510 C15.085,3.671 14.409,2.990 13.579,2.990 C12.749,2.990 12.073,3.671 12.073,4.510 L12.073,6.394 C12.073,7.124 11.552,7.747 10.839,7.869 C8.840,8.214 7.209,8.959 5.993,10.085 C4.553,11.415 3.854,13.140 3.854,15.356 C3.854,16.886 4.197,19.036 5.829,20.590 C7.131,21.832 8.777,22.584 10.520,23.382 C12.011,24.064 13.554,24.770 14.965,25.825 C16.175,26.732 16.779,27.821 16.756,29.059 C16.722,30.941 15.155,32.472 13.264,32.472 L10.481,32.472 C9.662,32.472 8.998,31.801 8.998,30.975 C8.998,30.149 9.662,29.478 10.481,29.478 L13.264,29.478 C13.541,29.478 13.786,29.256 13.791,29.002 C13.795,28.735 13.471,28.434 13.197,28.229 C12.042,27.364 10.708,26.754 9.296,26.108 C7.408,25.245 5.455,24.352 3.792,22.768 C1.920,20.984 0.888,18.351 0.888,15.356 C0.888,12.295 1.931,9.781 3.988,7.878 C5.362,6.608 7.080,5.703 9.107,5.182 L9.107,4.510 C9.107,2.021 11.113,-0.004 13.579,-0.004 C16.045,-0.004 18.051,2.021 18.051,4.510 L18.051,5.155 C20.149,5.682 21.974,6.612 23.490,7.927 C25.803,9.933 26.934,12.804 26.852,16.460 C26.834,17.272 26.175,17.922 25.369,17.922 ZM4.293,26.073 C5.111,26.073 5.775,26.743 5.775,27.570 C5.775,28.396 5.111,29.067 4.293,29.067 L3.012,29.067 C3.221,31.078 3.983,32.666 5.288,33.798 C6.678,35.004 8.438,35.795 10.521,36.148 C11.235,36.268 11.758,36.893 11.758,37.624 L11.758,39.487 C11.758,40.324 12.434,41.007 13.264,41.007 C14.095,41.007 14.770,40.324 14.770,39.487 L14.770,37.601 C14.770,36.871 15.292,36.249 16.004,36.126 C18.004,35.782 19.635,35.036 20.852,33.911 C22.290,32.582 22.989,30.858 22.989,28.641 C22.989,26.440 22.342,24.955 20.759,23.517 C19.301,22.235 17.098,21.118 14.025,20.101 C12.542,19.609 10.754,18.390 10.179,16.442 C9.817,15.213 10.029,13.902 10.746,12.933 C11.407,12.038 12.440,11.524 13.580,11.524 L16.067,11.524 C16.886,11.524 17.550,12.194 17.550,13.021 C17.550,13.847 16.886,14.517 16.067,14.517 L13.580,14.517 C13.306,14.517 13.187,14.634 13.122,14.723 C12.965,14.936 12.927,15.267 13.021,15.587 C13.254,16.376 14.157,16.993 14.949,17.257 C18.409,18.402 20.949,19.713 22.712,21.264 C22.715,21.266 22.716,21.270 22.718,21.272 C22.721,21.275 22.725,21.275 22.728,21.278 C24.930,23.270 25.955,25.610 25.955,28.641 C25.955,31.701 24.913,34.217 22.855,36.118 C21.482,37.389 19.764,38.292 17.736,38.814 L17.736,39.487 C17.736,41.975 15.730,44.000 13.264,44.000 C10.799,44.000 8.793,41.975 8.793,39.487 L8.793,38.841 C6.695,38.313 4.870,37.383 3.354,36.068 C1.043,34.062 -0.089,31.191 -0.008,27.537 C0.010,26.723 0.668,26.073 1.474,26.073 L4.293,26.073 Z"/>
</svg>
