<?xml version="1.0" standalone="no"?>
<!DOCTYPE svg PUBLIC "-//W3C//DTD SVG 20010904//EN"
 "http://www.w3.org/TR/2001/REC-SVG-20010904/DTD/svg10.dtd">
<svg version="1.0" xmlns="http://www.w3.org/2000/svg"
 width="307.000000pt" height="307.000000pt" viewBox="0 0 307.000000 307.000000"
 preserveAspectRatio="xMidYMid meet">
<metadata>
Created by potrace 1.11, written by Peter Selinger 2001-2013
</metadata>
<g transform="translate(0.000000,307.000000) scale(0.100000,-0.100000)"
fill="#000000" stroke="none">
<path d="M1970 2465 c-149 -30 -227 -71 -331 -174 -126 -127 -182 -260 -183
-436 0 -79 5 -115 24 -170 57 -171 168 -303 314 -376 126 -62 167 -68 446 -69
236 0 247 -1 285 -23 48 -27 65 -59 66 -126 2 -56 -15 -90 -58 -118 -25 -16
-70 -18 -498 -23 l-470 -5 0 -235 0 -235 490 0 c487 0 490 0 565 24 201 63
354 209 418 401 30 87 31 288 3 378 -58 187 -202 333 -398 404 -51 18 -90 21
-338 27 -177 4 -287 11 -300 18 -92 52 -101 191 -17 248 l37 25 472 0 c259 0
478 3 487 6 14 5 16 35 16 234 0 199 -2 229 -16 234 -32 12 -946 4 -1014 -9z"/>
<path d="M675 2040 c-153 -19 -308 -91 -425 -196 -166 -151 -271 -447 -240
-681 31 -237 128 -420 291 -548 289 -225 673 -222 969 8 54 43 159 162 160
182 0 11 -322 335 -333 335 -4 0 -20 -26 -36 -57 -49 -97 -134 -160 -229 -171
l-46 -5 69 84 c39 46 180 217 315 379 135 162 250 301 254 308 17 29 -119 177
-225 245 -150 96 -347 140 -524 117z m108 -468 c-6 -24 -297 -401 -306 -395
-17 10 -2 175 21 225 41 94 126 162 221 178 53 9 67 7 64 -8z"/>
</g>
</svg>
